<svg xmlns="http://www.w3.org/2000/svg" version="1.1" xmlns:xlink="http://www.w3.org/1999/xlink" xmlns:svgjs="http://svgjs.dev/svgjs" width="128" height="128" viewBox="0 0 128 128"><g transform="matrix(0.8046875,0,0,0.8046875,12.31706199855217,25.85874706051588)"><svg viewBox="0 0 96 71" data-background-color="#ffffff" preserveAspectRatio="xMidYMid meet" height="94" width="128" xmlns="http://www.w3.org/2000/svg" xmlns:xlink="http://www.w3.org/1999/xlink"><g id="tight-bounds" transform="matrix(1,0,0,1,0.2594702485348819,0.3997853770598283)"><svg viewBox="0 0 95.481 70.20070190060723" height="70.20070190060723" width="95.481"><g><svg viewBox="0 0 95.481 70.20070190060723" height="70.20070190060723" width="95.481"><g><svg viewBox="0 0 95.481 70.20070190060723" height="70.20070190060723" width="95.481"><g id="textblocktransform"><svg viewBox="0 0 95.481 70.20070190060723" height="70.20070190060723" width="95.481" id="textblock"><g><svg viewBox="0 0 95.481 70.20070190060723" height="70.20070190060723" width="95.481"><g><svg viewBox="0 0 95.481 70.20070190060723" height="70.20070190060723" width="95.481"><g><svg xmlns="http://www.w3.org/2000/svg" xmlns:xlink="http://www.w3.org/1999/xlink" version="1.1" x="0" y="0" viewBox="9.888 20.507999937409387 80.225 58.98400006259062" enable-background="new 0 0 100 100" xml:space="preserve" height="70.20070190060723" width="95.481" class="icon-icon-0" data-fill-palette-color="accent" id="icon-0"><g fill="#f00048" data-fill-palette-color="accent"><path d="M82.112 20.508H17.888A8 8 0 0 0 9.888 28.508V71.492A8 8 0 0 0 17.888 79.492H82.113A8 8 0 0 0 90.113 71.492V28.508A8 8 0 0 0 82.112 20.508M82.112 71.492H17.888V28.508H82.113V71.492z" fill="#f00048" data-fill-palette-color="accent"></path><path d="M37.627 66.596A4 4 0 0 0 41.627 66.596L64.373 53.464A3.998 3.998 0 0 0 64.373 46.536L41.627 33.404A3.998 3.998 0 0 0 35.627 36.868V63.132C35.627 64.561 36.389 65.882 37.627 66.596M43.627 43.796L54.373 50 43.627 56.204z" fill="#f00048" data-fill-palette-color="accent"></path></g></svg></g></svg></g></svg></g></svg></g></svg></g></svg></g><defs></defs></svg><rect width="95.481" height="70.20070190060723" fill="none" stroke="none" visibility="hidden"></rect></g></svg></g></svg>