<svg xmlns="http://www.w3.org/2000/svg" version="1.1" xmlns:xlink="http://www.w3.org/1999/xlink" xmlns:svgjs="http://svgjs.dev/svgjs" width="1500" height="1500" viewBox="0 0 1500 1500"><rect width="1500" height="1500" fill="#ffffff"></rect><g transform="matrix(0.6666666666666666,0,0,0.6666666666666666,249.39393939393932,631.2825313330746)"><svg viewBox="0 0 396 94" data-background-color="#ffffff" preserveAspectRatio="xMidYMid meet" height="356" width="1500" xmlns="http://www.w3.org/2000/svg" xmlns:xlink="http://www.w3.org/1999/xlink"><g id="tight-bounds" transform="matrix(1,0,0,1,0.2400000000000091,0.02012101695640922)"><svg viewBox="0 0 395.52 93.95975796608715" height="93.95975796608715" width="395.52"><g><svg viewBox="0 0 612.7636554699778 145.56817546109914" height="93.95975796608715" width="395.52"><g transform="matrix(1,0,0,1,217.24365546997785,32.004309460039586)"><svg viewBox="0 0 395.52 81.55955654101997" height="81.55955654101997" width="395.52"><g id="textblocktransform"><svg viewBox="0 0 395.52 81.55955654101997" height="81.55955654101997" width="395.52" id="textblock"><g><svg viewBox="0 0 395.52 81.55955654101997" height="81.55955654101997" width="395.52"><g transform="matrix(1,0,0,1,0,0)"><svg width="395.52" viewBox="1.1 -35.8 225.48000000000002 46.5" height="81.55955654101997" data-palette-color="#353535"><path d="M45.6-35.8L36.55 0 31.55 0 23.3-29.4 15.25 0 10.25 0 1.1-35.8 6.2-35.8 12.95-6.75 20.9-35.8 25.8-35.8 33.95-6.75 40.55-35.8 45.6-35.8ZM72.6-3.45L72.6-3.45 72.6-0.15Q70.9 0.45 69.95 0.45L69.95 0.45Q65.95 0.45 65.6-3.2L65.6-3.2Q62.85 0.55 56.85 0.55L56.85 0.55Q52.7 0.55 50.4-1.75L50.4-1.75Q48.4-3.75 48.4-6.9L48.4-6.9Q48.4-10.5 50.95-12.45L50.95-12.45Q52.4-13.55 57-14.6L57-14.6 65.4-16.5 65.45-18.65Q65.45-22.5 59.65-22.5L59.65-22.5Q54.1-22.5 53.7-18L53.7-18 49.55-18Q49.7-21.4 51.25-23.2L51.25-23.2Q53.9-26.25 59.85-26.25L59.85-26.25Q69.5-26.25 69.5-19.25L69.5-19.25 69.5-4.9Q69.5-3 71.15-3L71.15-3Q71.35-3 72.2-3.3L72.2-3.3Q72.5-3.4 72.6-3.45ZM65.45-8.65L65.45-13.15 58.85-11.45Q55.3-10.55 53.97-9.6 52.65-8.65 52.65-6.95L52.65-6.95Q52.65-3 57.75-3L57.75-3Q61.35-3 63.85-5.35L63.85-5.35Q65.45-6.8 65.45-8.65L65.45-8.65ZM81.9-25.7L87.15-25.7 87.15-22.4 81.9-22.4 81.9-5.3Q81.9-4.4 82.52-3.78 83.15-3.15 84.15-3.15L84.15-3.15Q85.1-3.15 87.05-3.6L87.05-3.6 87.5 0Q84.4 0.55 82.8 0.55L82.8 0.55Q77.85 0.55 77.85-3.5L77.85-3.5 77.85-22.4 74.35-22.4 74.35-25.7 77.85-25.7 77.85-30.95 81.9-32.8 81.9-25.7ZM111.59-17.1L111.59-17.1 107.49-17.1Q106.74-22.5 101.39-22.5L101.39-22.5Q98.04-22.5 96.14-19.85 94.24-17.2 94.24-12.5L94.24-12.5Q94.24-7.85 96.49-5.4L96.49-5.4Q98.39-3.25 101.59-3.25L101.59-3.25Q106.74-3.25 107.74-8.85L107.74-8.85 111.89-8.85Q111.49-4.05 108.44-1.6L108.44-1.6Q105.79 0.55 101.49 0.55L101.49 0.55Q95.84 0.55 92.69-3.45L92.69-3.45Q89.99-6.9 89.99-12.5L89.99-12.5Q89.99-19.2 93.54-23L93.54-23Q96.59-26.25 101.44-26.25L101.44-26.25Q107.04-26.25 109.84-22.5L109.84-22.5Q111.29-20.55 111.59-17.1ZM116.49 0L116.49-35.8 120.54-35.8 120.54-22.1Q122.39-24.4 124.24-25.33 126.09-26.25 128.84-26.25L128.84-26.25Q132.59-26.25 134.74-24.38 136.89-22.5 136.89-19.25L136.89-19.25 136.89 0 132.84 0 132.84-17.6Q132.84-20.3 131.19-21.55L131.19-21.55Q129.64-22.7 127.54-22.7L127.54-22.7Q124.39-22.7 122.47-20.35 120.54-18 120.54-14.1L120.54-14.1 120.54 0 116.49 0ZM175.09-25.7L167.54 0 162.89 0 157.64-20.2 152.69 0 148.09 0 140.64-25.7 145.14-25.7 150.44-5.7 155.34-25.7 160.34-25.7 165.39-5.7 170.49-25.7 175.09-25.7ZM202.04-3.45L202.04-3.45 202.04-0.15Q200.34 0.45 199.39 0.45L199.39 0.45Q195.39 0.45 195.04-3.2L195.04-3.2Q192.29 0.55 186.29 0.55L186.29 0.55Q182.14 0.55 179.84-1.75L179.84-1.75Q177.84-3.75 177.84-6.9L177.84-6.9Q177.84-10.5 180.39-12.45L180.39-12.45Q181.84-13.55 186.44-14.6L186.44-14.6 194.84-16.5 194.89-18.65Q194.89-22.5 189.09-22.5L189.09-22.5Q183.54-22.5 183.14-18L183.14-18 178.99-18Q179.14-21.4 180.69-23.2L180.69-23.2Q183.34-26.25 189.29-26.25L189.29-26.25Q198.94-26.25 198.94-19.25L198.94-19.25 198.94-4.9Q198.94-3 200.59-3L200.59-3Q200.79-3 201.64-3.3L201.64-3.3Q201.94-3.4 202.04-3.45ZM194.89-8.65L194.89-13.15 188.29-11.45Q184.74-10.55 183.41-9.6 182.09-8.65 182.09-6.95L182.09-6.95Q182.09-3 187.19-3L187.19-3Q190.79-3 193.29-5.35L193.29-5.35Q194.89-6.8 194.89-8.65L194.89-8.65ZM215.03-5.7L222.18-25.7 226.58-25.7 215.13 5.4Q213.13 10.7 208.48 10.7L208.48 10.7Q206.28 10.7 204.63 9.7L204.63 9.7 205.43 6.15Q206.68 6.65 207.88 6.65L207.88 6.65Q210.28 6.65 211.23 4.15L211.23 4.15 212.78 0.05 204.08-25.7 208.48-25.7 215.03-5.7Z" opacity="1" transform="matrix(1,0,0,1,0,0)" fill="#000000" class="wordmark-text-0" data-fill-palette-color="primary" id="text-0"></path></svg></g></svg></g></svg></g></svg></g><g><svg viewBox="0 0 197.9894016 145.56817546109914" height="145.56817546109914" width="197.9894016"><g><svg xmlns="http://www.w3.org/2000/svg" xmlns:xlink="http://www.w3.org/1999/xlink" version="1.1" x="0" y="0" viewBox="9.888 20.507999937409387 80.225 58.98400006259062" enable-background="new 0 0 100 100" xml:space="preserve" height="145.56817546109914" width="197.9894016" class="icon-icon-0" data-fill-palette-color="accent" id="icon-0"><g fill="#f00048" data-fill-palette-color="accent"><path d="M82.112 20.508H17.888A8 8 0 0 0 9.888 28.508V71.492A8 8 0 0 0 17.888 79.492H82.113A8 8 0 0 0 90.113 71.492V28.508A8 8 0 0 0 82.112 20.508M82.112 71.492H17.888V28.508H82.113V71.492z" fill="#000000" data-fill-palette-color="accent"></path><path d="M37.627 66.596A4 4 0 0 0 41.627 66.596L64.373 53.464A3.998 3.998 0 0 0 64.373 46.536L41.627 33.404A3.998 3.998 0 0 0 35.627 36.868V63.132C35.627 64.561 36.389 65.882 37.627 66.596M43.627 43.796L54.373 50 43.627 56.204z" fill="#000000" data-fill-palette-color="accent"></path></g></svg></g></svg></g></svg></g><defs></defs></svg><rect width="395.52" height="93.95975796608715" fill="none" stroke="none" visibility="hidden"></rect></g></svg></g></svg>